#!OML:ASF F:\VICON\USERDATA\INSTALL\rory3\rory3.ASF
:FULLY-SPECIFIED
:DEGREES
35
root -7.289881277300502 17.709506503646633 5.436443898191568 1.7194387836849216 30.252899027703258 -7.3453126321532665
lfemur 1.8955000264662445 17.427489600446457 8.569557117239293
ltibia 39.16858845387979
lfoot 20.24059837639234 10.763087331848528
ltoes -27.787790755340925
rfemur -27.031790653708917 18.288379872781796 26.62189022627342
rtibia 34.24239099513891
rfoot 2.2636443616792556 32.45388497845413
rtoes 41.82028447814396
lowerback 2.4922227357282667 -10.2197864976357 -18.86668505517248
upperback -1.7515837782525114 -14.125886271050755 -5.294615348866296
thorax -0.222913476888132 -6.7439374057034644 4.449675589513317
lowerneck -4.408181430328955 23.160085198614038 1.1109151821022232
upperneck 10.14110412181629 33.04238590933289 -13.437087253576049
head 6.290363712710881 15.263785697883167 -1.504285702854662
lclavicle -7.0142053577816215e-15 -5.153636100572235e-15
lhumerus 115.19898385414176 -40.10219460103065 43.431910424240826
lradius 39.65129946447636
lwrist 3.923910425810572
lhand -21.89419207701027 -1.6653383951952883
lfingers 7.125020000000003
lthumb -175.48899184372527 208.2670162260378
rclavicle -7.0142053577816215e-15 -5.153636100572235e-15
rhumerus 30.50750384682107 -27.333883758338082 -55.77930867852445
rradius 108.7429838675861
rwrist 4.129799982024387
rhand -64.93358889083396 27.338793901426023
rfingers 7.125020000000003
rthumb -36.834788127743735 1.2318020509615177
36
root -7.29446119719755 17.714606225647884 5.41608414449104 1.9612025997208633 30.20959906984391 -7.332902113915068
lfemur 1.4987206858504436 17.89269041805472 8.79125589487837
ltibia 39.490788676653615
lfoot 20.605398329777124 9.130218812312297
ltoes -28.34608821211719
rfemur -27.317390600004238 18.176280175478016 26.495190606255168
rtibia 34.114891274431365
rfoot 2.512973988163682 32.792085117693475
rtoes 41.566584519404174
lowerback 2.726092285362242 -10.180886293377048 -18.738185976274224
upperback -1.7519837832439986 -14.132487060315574 -5.276255310935529
thorax -0.3755201278771989 -6.738456999569273 4.458645642960279
lowerneck -4.585790808698398 23.226685045034124 1.053875320259677
upperneck 10.111703960135822 33.138285410806205 -13.463987454137175
head 6.312043650844057 15.297786112394645 -1.4744759745602438
lclavicle -7.014204515182537e-15 -5.153635956811142e-15
lhumerus 115.80598470899496 -39.536594328938136 43.38681036633702
lradius 39.86119940749762
lwrist 3.599920973120817
lhand -22.65759110889501 -1.5369177012895747
lfingers 7.125020000000003
lthumb -176.22599146004555 208.40900980695443
rclavicle -7.014204515182537e-15 -5.153635956811142e-15
rhumerus 31.057704306006173 -28.174083918864667 -55.01230942103904
rradius 108.67998359252873
rwrist 3.9961098923841476
rhand -65.0902874033877 26.09549479103332
rfingers 7.125020000000003
rthumb -36.98308750019453 0.026698087910373758
37
root -7.299981138431447 17.716306122369616 5.386324104953198 2.0831020160569267 30.423898904114434 -7.41839366114236
lfemur 0.8015045343915013 18.252590296102923 9.086986593532396
ltibia 40.08568796757885
lfoot 20.73589806947424 7.936918681580877
ltoes -28.96138835083995
rfemur -27.41129049006785 17.79888131163641 26.475790638991164
rtibia 33.650291678781755
rfoot 2.7903540187752682 32.87738515935519
rtoes 41.32638454335168
lowerback 3.0813015159412513 -10.142087219187736 -18.65148662041737
upperback -1.7486737025688734 -14.167486335476399 -5.265165742639971
thorax -0.5785635440300074 -6.741557413533551 4.501115605768311
lowerneck -4.284021531482959 23.114884407788605 1.4565840380423507
upperneck 10.151303827279666 32.99148677702489 -13.659187031145091
head 6.362783442544105 15.240786209441746 -1.5965248935537102
lclavicle -7.0142057157285186e-15 -5.153636028691608e-15
lhumerus 116.20898250916014 -39.27229462197598 43.43461005136551
lradius 39.83389935324257
lwrist 3.6909405382965126
lhand -22.361291364727556 -1.1842985957354664
lfingers 7.125020000000003
lthumb -175.93999188125838 208.75702155296992
rclavicle -7.0142057157285186e-15 -5.153636028691608e-15
rhumerus 31.267804147639428 -28.732783421338993 -54.394809500747535
rradius 108.29698181619823
rwrist 3.1741904572985966
rhand -65.375287210877 27.88489319811113
rfingers 7.125020000000003
rthumb -37.2525876386074 1.8861620602870346
38
root -7.304751032237942 17.719205962419185 5.333694448308747 2.149998388404839 30.897298717711347 -7.760839347347144
lfemur -0.22044705379981266 18.842588896019624 9.581306312843529
ltibia 40.84698625837949
lfoot 20.748598106419713 7.231948962689362
ltoes -28.870589122289832
rfemur -27.612790975093393 17.15228182292555 26.6406903607352
rtibia 33.088692156486275
rfoot 2.2195943515550267 33.00118291837067
rtoes 39.394386279887485
lowerback 3.5493107420984202 -9.960916768414068 -18.30168587194179
upperback -1.8136036466594634 -14.046386079190507 -5.29466579931095
thorax -1.0187115929935908 -6.65084697931969 4.429945721942901
lowerneck -3.6266526977536797 22.81368570515062 2.469280463058775
upperneck 10.357703931078293 32.62468729758392 -14.070286435367251
head 6.523673049227049 15.09118519339391 -1.8706724965554025
lclavicle -7.014203868979596e-15 -5.153636028691608e-15
lhumerus 116.51898440630765 -39.88619474457326 43.63401088714463
lradius 39.37129964783277
lwrist 3.0924616703410273
lhand -22.64389148986924 -1.2227795989506305
lfingers 7.125020000000003
lthumb -176.21299147919157 208.72301403491744
rclavicle -7.014203868979596e-15 -5.153636028691608e-15
rhumerus 30.576804327890027 -29.363482926469224 -53.45670977648671
rradius 108.0529828861002
rwrist 1.9230416536630628
rhand -65.63708696977693 25.894894916374277
rfingers 7.125020000000003
rthumb -37.49998853105045 -0.0386789268970027
39
root -7.3100709582498355 17.723105741092596 5.269494563471266 2.411440431347515 31.340998617483734 -7.612044755197218
lfemur -0.857567782000487 19.65518743213236 9.585325627378044
ltibia 41.05748614202905
lfoot 20.727398267234868 6.054439759807472
ltoes -29.741988000624584
rfemur -27.99239028851759 16.694982031537958 26.231391012037534
rtibia 32.91339250903118
rfoot 2.906133753634986 32.70368388858522
rtoes 39.46548629987306
lowerback 4.010350070343776 -9.92729741363837 -18.55758633666301
upperback -1.5361041208723454 -14.078786343223234 -5.122485718991569
thorax -0.8646168986393785 -6.6893168913155225 4.775644891733522
lowerneck -4.540090869039559 22.966684694739108 1.7830328995746316
upperneck 10.553303672979908 32.86898529250067 -13.743186759084136
head 6.588912819604054 15.142086186164777 -1.5936849639998387
lclavicle -7.014204819278923e-15 -5.153635741169023e-15
lhumerus 116.53698398964386 -39.21859492248923 43.61431071945223
lradius 39.31459970148955
lwrist 3.1636804018233704
lhand -21.972491792898097 -0.13717234514093946
lfingers 7.125020000000003
lthumb -175.56499173179458 209.79600221858095
rclavicle -7.014204819278923e-15 -5.153635741169023e-15
rhumerus 31.421903496337503 -29.502682737303445 -53.63430934373053
rradius 107.29198274034798
rwrist 0.6784483730591724
rhand -66.00548770625805 25.33219511606505
rfingers 7.125020000000003
rthumb -37.84818802793253 -0.5082058694242608
40
root -7.314290897091799 17.760703632854955 5.192315053189187 2.490153338974565 31.875998422144193 -7.795739228938231
lfemur -1.3775261316713951 20.185988505322094 9.736945417370475
ltibia 41.05418612408325
lfoot 20.13889845670276 5.740200012660964
ltoes -28.66239063829352
rfemur -28.428090791023312 15.912282900809403 26.127291174578318
rtibia 33.02609248476205
rfoot 0.09422802510274408 32.91448560366983
rtoes 31.922290933928316
lowerback 4.520239020401505 -9.828157398075483 -18.526386404016193
upperback -1.406854279673753 -14.051186942044486 -4.951476088988172
thorax -0.9752956800921302 -6.675927141022829 5.0245045455982495
lowerneck -4.5258207941395785 22.971485998855854 1.8057928265633838
upperneck 10.542403594703563 32.88498676656731 -13.847586816660812
head 6.606942825183484 15.146786251384528 -1.6192746962808857
lclavicle -7.01420518039253e-15 -5.1536364060646496e-15
lhumerus 115.98998563435018 -39.28149421907672 44.09731002237855
lradius 38.63610008170098
lwrist 2.581700864072779
lhand -20.82659282199671 1.310990018240755
lfingers 7.125020000000003
lthumb -174.4579926604 211.21901954339862
rclavicle -7.01420518039253e-15 -5.1536364060646496e-15
rhumerus 31.688003830905934 -29.1010839530594 -54.001809970525464
rradius 106.44298497052984
rwrist -0.7995027190371111
rhand -66.50218770276125 19.694199033929007
rfingers 7.125020000000003
rthumb -38.31718748166196 -6.018032732869271
41
root -7.309249868888407 17.755835291982837 5.148841860313311 3.4453502249734953 33.489182639330984 -7.903394713724111
lfemur -2.574842225672562 20.611390604330776 9.824675063399706
ltibia 40.25977463672878
lfoot 17.356746603483952 4.8878493861841115
ltoes -27.080634453199853
rfemur -28.682002416084444 14.895373928953946 26.22634490699064
rtibia 32.96463174617558
rfoot -0.37209025037506827 32.678683799624274
rtoes 36.350132853783585
lowerback 5.2867992713127405 -9.653411372386133 -18.18433700986095
upperback -1.3645606853299674 -14.21892624224976 -4.810783542771733
thorax -1.2057033904760601 -6.549645547847458 4.946452622230461
lowerneck -6.303573526893466 21.669998982148588 0.5789265027315843
upperneck 10.863377167975797 31.813352938455193 -13.16144336181691
head 6.7839279506393035 14.22152527274226 -1.1278115005939346
lclavicle -7.011654159003693e-15 -5.262098253441597e-15
lhumerus 114.24464146234672 -37.53966787589201 44.12445910774973
lradius 37.91268383412505
lwrist 3.1909123668274333
lhand -20.515161222067906 0.8840525498930845
lfingers 7.125020000000003
lthumb -174.3740426236967 212.5863468499639
rclavicle -7.0166270075706085e-15 -5.1541736089135966e-15
rhumerus 33.09528338231479 -27.672642532903588 -54.60544756129397
rradius 103.98765617527931
rwrist -2.4774384075415377
rhand -64.73616453654788 19.12601066806424
rfingers 7.125020000000003
rthumb -37.339381201573985 -5.451804276380088
